<?xml version="1.0" encoding="UTF-8" standalone="no"?>
<!-- Created with Inkscape (http://www.inkscape.org/) -->

<svg
   width="210mm"
   height="297mm"
   viewBox="0 0 210 297"
   version="1.1"
   id="svg5"
   inkscape:version="1.1 (c4e8f9e, 2021-05-24)"
   sodipodi:docname="pineapple.svg"
   xmlns:inkscape="http://www.inkscape.org/namespaces/inkscape"
   xmlns:sodipodi="http://sodipodi.sourceforge.net/DTD/sodipodi-0.dtd"
   xmlns="http://www.w3.org/2000/svg"
   xmlns:svg="http://www.w3.org/2000/svg">
  <defs
     id="defs2" />
  <g
     inkscape:label="Layer 1"
     inkscape:groupmode="layer"
     id="layer1">
    <path
       id="path893"
       style="fill:#fee721;fill-opacity:1;stroke:#fee721;stroke-width:0.278196px;stroke-linecap:butt;stroke-linejoin:miter;stroke-opacity:1"
       d="m 102.97131,101.79308 -4.258508,15.9613 4.152098,4.65286 3.83234,-5.00607 z m -11.178846,6.89102 2.927854,18.08169 4.418127,2.70907 1.543475,-4.594 z m 22.197556,0.58925 -9.52844,15.96129 1.49079,4.88835 5.11031,-3.65155 z m -31.406761,8.30442 9.794466,18.90642 6.281353,2.17926 0.160134,-6.47893 z m 40.296741,0.23547 -16.39557,14.37128 0.53257,6.36063 6.60058,-2.35587 z m -19.80228,11.36729 -2.92785,10.48369 2.71503,4.94778 2.76772,-5.00665 z m 14.53235,7.30366 -10.69948,3.71041 -2.66183,5.18269 9.20921,1.0602 z m -29.65047,0.11773 4.684669,9.60009 8.783051,-1.11906 -3.14068,-5.06496 z m 16.75923,10.41397 -3.75074,0.36635 1.76509,1.46485 z m 4.64024,0.54066 3.03426,1.7672 0.31924,-1.64945 z m -16.555183,0.41266 0.372438,1.29567 2.342077,-1.29567 z m 5.627389,0.26747 -3.860758,2.68508 2.426792,2.56277 3.52964,-3.2949 z m 8.383234,0 -2.20623,1.95295 4.08185,2.92911 2.09567,-2.31929 z m -16.3527,0.67499 -3.939276,2.11983 0.425643,2.41531 4.098893,-2.41531 z m 25.17758,0.0572 -1.43397,1.46485 3.97131,2.80681 0.88228,-2.44104 z m -12.68565,2.92913 -4.301892,3.29547 4.301892,4.02762 4.08185,-4.14936 z m -10.52281,0.13487 -4.47133,3.23947 -0.266028,-0.35321 2.768238,3.94588 4.471331,-3.82814 z m 28.5037,0.23147 -0.66222,2.56278 3.08902,2.92969 0.55117,-2.92969 z m -8.16318,0.24405 -1.76507,2.19698 4.41244,3.78357 1.65454,-3.05142 z m -27.952528,0.11374 -3.513114,3.12172 0.691671,2.35589 3.087471,-3.06287 z m 11.178847,4.18135 -4.205305,3.94646 4.152099,4.88836 4.098887,-4.53515 z m 13.133501,0.0989 -4.19188,4.14935 5.07416,4.14993 3.30959,-4.51571 z m -23.141307,0.19603 -3.300295,3.23948 1.863227,4.06362 3.300294,-3.76928 z m 33.620727,0.29206 -1.8751,3.17318 3.52964,4.0276 1.32394,-4.27165 z m 5.95696,0.4881 -0.55168,2.31929 2.53733,2.44103 z m -45.486602,0.51552 -0.212823,0.11774 -1.064627,0.76586 -0.159616,2.23814 2.18246,-1.29625 z m 0.798599,4.12249 -3.88607,5.24213 2.395801,5.59535 3.30029,-5.53648 z m 8.395627,0.36636 -3.86076,4.5157 3.640191,5.61421 4.081329,-5.0038 z m 35.630146,0.36579 -1.8751,4.27165 3.64018,5.37073 1.65454,-5.37073 z m -22.09373,0.0926 -5.110311,4.594 4.737361,5.24214 5.32314,-5.35987 z m 13.26885,0.27376 -3.19854,4.27167 3.97079,4.76032 2.97847,-4.88206 z m -21.510022,6.7127 -4.412446,5.61419 5.846411,5.98057 4.191867,-5.37016 z m 16.105262,0.24405 -5.1847,5.7365 4.41245,5.24842 5.18469,-6.10286 z m 10.81002,0.24405 -2.97796,5.00436 3.52964,5.98056 3.19905,-5.37015 z m -37.784709,0.12345 -3.247086,5.59533 3.087468,5.35986 3.087472,-6.00798 z m 45.506749,1.70774 -1.76508,4.27167 1.8751,4.39339 z m -52.533496,1.47285 -0.266028,3.06229 0.425645,2.76853 1.490787,-3.23947 z m 11.711417,4.2991 -3.300811,5.94912 4.57826,5.47703 3.886071,-5.53589 z m 28.577569,0.0863 -5.07415,5.73652 4.08133,5.24785 4.19187,-5.00381 z m -14.25857,0.7973 -4.79056,4.82948 4.79056,4.65345 4.57826,-4.53514 z m -23.528206,0.47152 -1.703611,5.65421 3.566322,4.53513 1.33117,-5.18325 z m 46.942266,0.31777 -2.97797,5.0038 1.43397,5.73652 3.41962,-5.61421 z m -30.227462,6.69098 -4.205303,5.41873 4.258508,3.47494 4.205307,-4.29967 z m 32.577802,0.0588 -3.77914,5.47761 0.7986,3.65154 2.12925,-3.71041 z m -18.95047,0.11774 -4.63095,4.2408 4.41812,4.71175 4.41813,-3.59268 z m -25.445162,0.64812 -1.703093,5.00609 4.364922,4.29967 1.703609,-4.71175 z m 37.081682,0.29549 -4.30242,4.39396 2.09619,4.88206 3.86077,-4.88206 z m -43.522649,0.0577 0.638982,3.94588 1.543477,3.47495 0.798599,-3.71041 z m 25.072199,5.41873 -4.41812,4.1225 4.47133,3.76985 4.57826,-3.65211 z m 12.08386,0.88304 -3.61953,3.47493 2.5017,3.47494 3.62004,-2.59134 z m -24.2204,0.11773 -2.076049,3.88759 3.353499,2.88568 2.288872,-3.3572 z m -8.517533,0.11831 -0.585263,3.3572 1.863229,2.41474 2.182459,1.70775 0.638466,-3.88702 z m 41.627903,0.0588 -4.36492,3.82815 0.53206,3.53381 4.25851,-3.82815 z m -27.148766,4.82948 -2.608105,3.06286 4.045688,2.59135 2.874643,-2.23814 z m 12.510016,0.35321 -4.41864,3.06286 2.82145,1.88493 4.04568,-2.29758 z m 8.46381,0.29434 -3.24709,2.297 1.06463,2.70966 3.08747,-2.35587 z m -29.650461,0.29492 -1.011422,2.4736 2.874648,1.76662 1.011422,-2.41474 z m 4.950698,3.12116 -0.638984,1.88492 4.791082,0.82473 z m 19.483043,0 -3.99248,2.70965 5.16352,-0.58926 z m -9.47524,0.82472 -2.71503,1.82606 5.11032,0.0588 z" />
    <path
       style="fill:#00ffff;stroke:#ff0000;stroke-width:0.417744"
       d=""
       id="path1164"
       transform="scale(0.6)" />
  </g>
</svg>
